<?xml version="1.0" encoding="UTF-8"?>
<svg id="Calque_1" data-name="Calque 1" xmlns="http://www.w3.org/2000/svg" xmlns:xlink="http://www.w3.org/1999/xlink" viewBox="0 0 160 160">
  <defs>
    <style>
      .cls-1 {
        fill: url(#Dégradé_sans_nom_126);
      }

      .cls-2 {
        fill: url(#Dégradé_sans_nom_231-5);
      }

      .cls-3 {
        fill: url(#Dégradé_sans_nom_231-21);
      }

      .cls-4 {
        fill: url(#Dégradé_sans_nom_231-24);
      }

      .cls-5 {
        fill: url(#Dégradé_sans_nom_231-8);
      }

      .cls-6 {
        fill: url(#Dégradé_sans_nom_231-30);
      }

      .cls-7 {
        fill: url(#Dégradé_sans_nom_181);
      }

      .cls-8 {
        fill: url(#Dégradé_sans_nom_231-13);
      }

      .cls-9 {
        fill: url(#Dégradé_sans_nom_231-18);
      }

      .cls-10 {
        fill: url(#Dégradé_sans_nom_231-11);
      }

      .cls-11 {
        fill: url(#Dégradé_sans_nom_231-14);
      }

      .cls-12 {
        fill: url(#Dégradé_sans_nom_231-19);
      }

      .cls-13 {
        fill: url(#Dégradé_sans_nom_231-6);
      }

      .cls-14 {
        fill: url(#Dégradé_sans_nom_231-25);
      }

      .cls-15 {
        fill: url(#Dégradé_sans_nom_231-28);
      }

      .cls-16 {
        fill: url(#Dégradé_sans_nom_231-27);
      }

      .cls-17 {
        fill: url(#Dégradé_sans_nom_231-31);
      }

      .cls-18 {
        fill: url(#Dégradé_sans_nom_231-15);
      }

      .cls-19 {
        fill: url(#Dégradé_sans_nom_192);
      }

      .cls-20 {
        fill: url(#Dégradé_sans_nom_231);
      }

      .cls-21 {
        fill: url(#Dégradé_sans_nom_231-7);
      }

      .cls-22 {
        fill: url(#Dégradé_sans_nom_231-2);
      }

      .cls-23 {
        fill: url(#Dégradé_sans_nom_231-3);
      }

      .cls-24 {
        fill: url(#Dégradé_sans_nom_231-20);
      }

      .cls-25 {
        fill: url(#Dégradé_sans_nom_231-29);
      }

      .cls-26 {
        fill: url(#Dégradé_sans_nom_231-12);
      }

      .cls-27 {
        fill: url(#Dégradé_sans_nom_231-26);
      }

      .cls-28 {
        fill: url(#Dégradé_sans_nom_231-10);
      }

      .cls-29 {
        fill: url(#Dégradé_sans_nom_231-4);
      }

      .cls-30 {
        fill: url(#Dégradé_sans_nom_231-22);
      }

      .cls-31 {
        fill: url(#Dégradé_sans_nom_231-17);
      }

      .cls-32 {
        fill: url(#Dégradé_sans_nom_231-9);
      }

      .cls-33 {
        fill: url(#Dégradé_sans_nom_231-16);
      }

      .cls-34 {
        fill: url(#Dégradé_sans_nom_231-23);
      }
    </style>
    <linearGradient id="Dégradé_sans_nom_231" data-name="Dégradé sans nom 231" x1="80" y1="137.13" x2="80" y2="22.87" gradientTransform="translate(3 3)" gradientUnits="userSpaceOnUse">
      <stop offset="0" stop-color="#fff"/>
      <stop offset=".17" stop-color="#811eff"/>
      <stop offset=".76" stop-color="#ecddff"/>
      <stop offset=".87" stop-color="#7000ff"/>
    </linearGradient>
    <linearGradient id="Dégradé_sans_nom_231-2" data-name="Dégradé sans nom 231" gradientTransform="translate(2.9 2.9)" xlink:href="#Dégradé_sans_nom_231"/>
    <linearGradient id="Dégradé_sans_nom_231-3" data-name="Dégradé sans nom 231" gradientTransform="translate(2.8 2.8)" xlink:href="#Dégradé_sans_nom_231"/>
    <linearGradient id="Dégradé_sans_nom_231-4" data-name="Dégradé sans nom 231" gradientTransform="translate(2.7 2.7)" xlink:href="#Dégradé_sans_nom_231"/>
    <linearGradient id="Dégradé_sans_nom_231-5" data-name="Dégradé sans nom 231" gradientTransform="translate(2.6 2.6)" xlink:href="#Dégradé_sans_nom_231"/>
    <linearGradient id="Dégradé_sans_nom_231-6" data-name="Dégradé sans nom 231" gradientTransform="translate(2.5 2.5)" xlink:href="#Dégradé_sans_nom_231"/>
    <linearGradient id="Dégradé_sans_nom_231-7" data-name="Dégradé sans nom 231" gradientTransform="translate(2.4 2.4)" xlink:href="#Dégradé_sans_nom_231"/>
    <linearGradient id="Dégradé_sans_nom_231-8" data-name="Dégradé sans nom 231" gradientTransform="translate(2.3 2.3)" xlink:href="#Dégradé_sans_nom_231"/>
    <linearGradient id="Dégradé_sans_nom_231-9" data-name="Dégradé sans nom 231" gradientTransform="translate(2.2 2.2)" xlink:href="#Dégradé_sans_nom_231"/>
    <linearGradient id="Dégradé_sans_nom_231-10" data-name="Dégradé sans nom 231" gradientTransform="translate(2.1 2.1)" xlink:href="#Dégradé_sans_nom_231"/>
    <linearGradient id="Dégradé_sans_nom_231-11" data-name="Dégradé sans nom 231" gradientTransform="translate(2 2)" xlink:href="#Dégradé_sans_nom_231"/>
    <linearGradient id="Dégradé_sans_nom_231-12" data-name="Dégradé sans nom 231" gradientTransform="translate(1.9 1.9)" xlink:href="#Dégradé_sans_nom_231"/>
    <linearGradient id="Dégradé_sans_nom_231-13" data-name="Dégradé sans nom 231" gradientTransform="translate(1.8 1.8)" xlink:href="#Dégradé_sans_nom_231"/>
    <linearGradient id="Dégradé_sans_nom_231-14" data-name="Dégradé sans nom 231" gradientTransform="translate(1.7 1.7)" xlink:href="#Dégradé_sans_nom_231"/>
    <linearGradient id="Dégradé_sans_nom_231-15" data-name="Dégradé sans nom 231" gradientTransform="translate(1.6 1.6)" xlink:href="#Dégradé_sans_nom_231"/>
    <linearGradient id="Dégradé_sans_nom_231-16" data-name="Dégradé sans nom 231" gradientTransform="translate(1.5 1.5)" xlink:href="#Dégradé_sans_nom_231"/>
    <linearGradient id="Dégradé_sans_nom_231-17" data-name="Dégradé sans nom 231" gradientTransform="translate(1.4 1.4)" xlink:href="#Dégradé_sans_nom_231"/>
    <linearGradient id="Dégradé_sans_nom_231-18" data-name="Dégradé sans nom 231" gradientTransform="translate(1.3 1.3)" xlink:href="#Dégradé_sans_nom_231"/>
    <linearGradient id="Dégradé_sans_nom_231-19" data-name="Dégradé sans nom 231" gradientTransform="translate(1.2 1.2)" xlink:href="#Dégradé_sans_nom_231"/>
    <linearGradient id="Dégradé_sans_nom_231-20" data-name="Dégradé sans nom 231" gradientTransform="translate(1.1 1.1)" xlink:href="#Dégradé_sans_nom_231"/>
    <linearGradient id="Dégradé_sans_nom_231-21" data-name="Dégradé sans nom 231" gradientTransform="translate(1 1)" xlink:href="#Dégradé_sans_nom_231"/>
    <linearGradient id="Dégradé_sans_nom_231-22" data-name="Dégradé sans nom 231" gradientTransform="translate(.9 .9)" xlink:href="#Dégradé_sans_nom_231"/>
    <linearGradient id="Dégradé_sans_nom_231-23" data-name="Dégradé sans nom 231" gradientTransform="translate(.8 .8)" xlink:href="#Dégradé_sans_nom_231"/>
    <linearGradient id="Dégradé_sans_nom_231-24" data-name="Dégradé sans nom 231" gradientTransform="translate(.7 .7)" xlink:href="#Dégradé_sans_nom_231"/>
    <linearGradient id="Dégradé_sans_nom_231-25" data-name="Dégradé sans nom 231" gradientTransform="translate(.6 .6)" xlink:href="#Dégradé_sans_nom_231"/>
    <linearGradient id="Dégradé_sans_nom_231-26" data-name="Dégradé sans nom 231" gradientTransform="translate(.5 .5)" xlink:href="#Dégradé_sans_nom_231"/>
    <linearGradient id="Dégradé_sans_nom_231-27" data-name="Dégradé sans nom 231" gradientTransform="translate(.4 .4)" xlink:href="#Dégradé_sans_nom_231"/>
    <linearGradient id="Dégradé_sans_nom_231-28" data-name="Dégradé sans nom 231" gradientTransform="translate(.3 .3)" xlink:href="#Dégradé_sans_nom_231"/>
    <linearGradient id="Dégradé_sans_nom_231-29" data-name="Dégradé sans nom 231" gradientTransform="translate(.2 .2)" xlink:href="#Dégradé_sans_nom_231"/>
    <linearGradient id="Dégradé_sans_nom_231-30" data-name="Dégradé sans nom 231" gradientTransform="translate(.1 .1)" xlink:href="#Dégradé_sans_nom_231"/>
    <linearGradient id="Dégradé_sans_nom_231-31" data-name="Dégradé sans nom 231" gradientTransform="matrix(1,0,0,1,0,0)" xlink:href="#Dégradé_sans_nom_231"/>
    <linearGradient id="Dégradé_sans_nom_126" data-name="Dégradé sans nom 126" x1="80" y1="138.13" x2="80" y2="21.87" gradientUnits="userSpaceOnUse">
      <stop offset="0" stop-color="#fff"/>
      <stop offset="1" stop-color="#7000ff"/>
    </linearGradient>
    <linearGradient id="Dégradé_sans_nom_192" data-name="Dégradé sans nom 192" x1="80" y1="22.27" x2="80" y2="137.73" gradientUnits="userSpaceOnUse">
      <stop offset="0" stop-color="#fff"/>
      <stop offset="1" stop-color="#fff"/>
    </linearGradient>
    <linearGradient id="Dégradé_sans_nom_181" data-name="Dégradé sans nom 181" x1="16.64" y1="80" x2="143.36" y2="80" gradientUnits="userSpaceOnUse">
      <stop offset="0" stop-color="#fff"/>
      <stop offset="1" stop-color="#7000ff"/>
    </linearGradient>
  </defs>
  <path d="M57.72,23.96h50.68l-11.14,30.15,15.51-16.6c3.78-4.08,6.96-7.13,9.5-9.18,2.55-2.04,4.95-3.46,7.21-4.26,2.26-.8,4.92-1.2,7.98-1.2h5.9l-17.04,48.5h-4.59c-3.64,0-7.03.29-10.16.87-3.14.58-6.81,1.68-11.03,3.28l-9.4,3.28-21.19,58.33H16.64L57.72,23.96Z"/>
  <g>
    <path class="cls-20" d="M60.72,26.96h50.68l-11.14,30.15,15.51-16.6c3.78-4.08,6.96-7.13,9.5-9.18,2.55-2.04,4.95-3.46,7.21-4.26,2.26-.8,4.92-1.2,7.98-1.2h5.9l-17.04,48.5h-4.59c-3.64,0-7.03.29-10.16.87-3.14.58-6.81,1.68-11.03,3.28l-9.4,3.28-21.19,58.33H19.64L60.72,26.96Z"/>
    <path class="cls-22" d="M60.62,26.86h50.68l-11.14,30.15,15.51-16.6c3.78-4.08,6.96-7.13,9.5-9.18,2.55-2.04,4.95-3.46,7.21-4.26,2.26-.8,4.92-1.2,7.98-1.2h5.9l-17.04,48.5h-4.59c-3.64,0-7.03.29-10.16.87-3.14.58-6.81,1.68-11.03,3.28l-9.4,3.28-21.19,58.33H19.54L60.62,26.86Z"/>
    <path class="cls-23" d="M60.52,26.76h50.68l-11.14,30.15,15.51-16.6c3.78-4.08,6.96-7.13,9.5-9.18,2.55-2.04,4.95-3.46,7.21-4.26,2.26-.8,4.92-1.2,7.98-1.2h5.9l-17.04,48.5h-4.59c-3.64,0-7.03.29-10.16.87-3.14.58-6.81,1.68-11.03,3.28l-9.4,3.28-21.19,58.33H19.44L60.52,26.76Z"/>
    <path class="cls-29" d="M60.42,26.66h50.68l-11.14,30.15,15.51-16.6c3.78-4.08,6.96-7.13,9.5-9.18,2.55-2.04,4.95-3.46,7.21-4.26,2.26-.8,4.92-1.2,7.98-1.2h5.9l-17.04,48.5h-4.59c-3.64,0-7.03.29-10.16.87-3.14.58-6.81,1.68-11.03,3.28l-9.4,3.28-21.19,58.33H19.34L60.42,26.66Z"/>
    <path class="cls-2" d="M60.32,26.56h50.68l-11.14,30.15,15.51-16.6c3.78-4.08,6.96-7.13,9.5-9.18,2.55-2.04,4.95-3.46,7.21-4.26,2.26-.8,4.92-1.2,7.98-1.2h5.9l-17.04,48.5h-4.59c-3.64,0-7.03.29-10.16.87-3.14.58-6.81,1.68-11.03,3.28l-9.4,3.28-21.19,58.33H19.24L60.32,26.56Z"/>
    <path class="cls-13" d="M60.22,26.46h50.68l-11.14,30.15,15.51-16.6c3.78-4.08,6.96-7.13,9.5-9.18,2.55-2.04,4.95-3.46,7.21-4.26,2.26-.8,4.92-1.2,7.98-1.2h5.9l-17.04,48.5h-4.59c-3.64,0-7.03.29-10.16.87-3.14.58-6.81,1.68-11.03,3.28l-9.4,3.28-21.19,58.33H19.14L60.22,26.46Z"/>
    <path class="cls-21" d="M60.12,26.36h50.68l-11.14,30.15,15.51-16.6c3.78-4.08,6.96-7.13,9.5-9.18,2.55-2.04,4.95-3.46,7.21-4.26,2.26-.8,4.92-1.2,7.98-1.2h5.9l-17.04,48.5h-4.59c-3.64,0-7.03.29-10.16.87-3.14.58-6.81,1.68-11.03,3.28l-9.4,3.28-21.19,58.33H19.04L60.12,26.36Z"/>
    <path class="cls-5" d="M60.02,26.26h50.68l-11.14,30.15,15.51-16.6c3.78-4.08,6.96-7.13,9.5-9.18,2.55-2.04,4.95-3.46,7.21-4.26,2.26-.8,4.92-1.2,7.98-1.2h5.9l-17.04,48.5h-4.59c-3.64,0-7.03.29-10.16.87-3.14.58-6.81,1.68-11.03,3.28l-9.4,3.28-21.19,58.33H18.94L60.02,26.26Z"/>
    <path class="cls-32" d="M59.92,26.16h50.68l-11.14,30.15,15.51-16.6c3.78-4.08,6.96-7.13,9.5-9.18,2.55-2.04,4.95-3.46,7.21-4.26,2.26-.8,4.92-1.2,7.98-1.2h5.9l-17.04,48.5h-4.59c-3.64,0-7.03.29-10.16.87-3.14.58-6.81,1.68-11.03,3.28l-9.4,3.28-21.19,58.33H18.84L59.92,26.16Z"/>
    <path class="cls-28" d="M59.82,26.06h50.68l-11.14,30.15,15.51-16.6c3.78-4.08,6.96-7.13,9.5-9.18,2.55-2.04,4.95-3.46,7.21-4.26,2.26-.8,4.92-1.2,7.98-1.2h5.9l-17.04,48.5h-4.59c-3.64,0-7.03.29-10.16.87-3.14.58-6.81,1.68-11.03,3.28l-9.4,3.28-21.19,58.33H18.74L59.82,26.06Z"/>
    <path class="cls-10" d="M59.72,25.96h50.68l-11.14,30.15,15.51-16.6c3.78-4.08,6.96-7.13,9.5-9.18,2.55-2.04,4.95-3.46,7.21-4.26,2.26-.8,4.92-1.2,7.98-1.2h5.9l-17.04,48.5h-4.59c-3.64,0-7.03.29-10.16.87-3.14.58-6.81,1.68-11.03,3.28l-9.4,3.28-21.19,58.33H18.64L59.72,25.96Z"/>
    <path class="cls-26" d="M59.62,25.86h50.68l-11.14,30.15,15.51-16.6c3.78-4.08,6.96-7.13,9.5-9.18,2.55-2.04,4.95-3.46,7.21-4.26,2.26-.8,4.92-1.2,7.98-1.2h5.9l-17.04,48.5h-4.59c-3.64,0-7.03.29-10.16.87-3.14.58-6.81,1.68-11.03,3.28l-9.4,3.28-21.19,58.33H18.54L59.62,25.86Z"/>
    <path class="cls-8" d="M59.52,25.76h50.68l-11.14,30.15,15.51-16.6c3.78-4.08,6.96-7.13,9.5-9.18,2.55-2.04,4.95-3.46,7.21-4.26,2.26-.8,4.92-1.2,7.98-1.2h5.9l-17.04,48.5h-4.59c-3.64,0-7.03.29-10.16.87-3.14.58-6.81,1.68-11.03,3.28l-9.4,3.28-21.19,58.33H18.44L59.52,25.76Z"/>
    <path class="cls-11" d="M59.42,25.66h50.68l-11.14,30.15,15.51-16.6c3.78-4.08,6.96-7.13,9.5-9.18,2.55-2.04,4.95-3.46,7.21-4.26,2.26-.8,4.92-1.2,7.98-1.2h5.9l-17.04,48.5h-4.59c-3.64,0-7.03.29-10.16.87-3.14.58-6.81,1.68-11.03,3.28l-9.4,3.28-21.19,58.33H18.34L59.42,25.66Z"/>
    <path class="cls-18" d="M59.32,25.56h50.68l-11.14,30.15,15.51-16.6c3.78-4.08,6.96-7.13,9.5-9.18,2.55-2.04,4.95-3.46,7.21-4.26,2.26-.8,4.92-1.2,7.98-1.2h5.9l-17.04,48.5h-4.59c-3.64,0-7.03.29-10.16.87-3.14.58-6.81,1.68-11.03,3.28l-9.4,3.28-21.19,58.33H18.24L59.32,25.56Z"/>
    <path class="cls-33" d="M59.22,25.46h50.68l-11.14,30.15,15.51-16.6c3.78-4.08,6.96-7.13,9.5-9.18,2.55-2.04,4.95-3.46,7.21-4.26,2.26-.8,4.92-1.2,7.98-1.2h5.9l-17.04,48.5h-4.59c-3.64,0-7.03.29-10.16.87-3.14.58-6.81,1.68-11.03,3.28l-9.4,3.28-21.19,58.33H18.14L59.22,25.46Z"/>
    <path class="cls-31" d="M59.12,25.36h50.68l-11.14,30.15,15.51-16.6c3.78-4.08,6.96-7.13,9.5-9.18,2.55-2.04,4.95-3.46,7.21-4.26,2.26-.8,4.92-1.2,7.98-1.2h5.9l-17.04,48.5h-4.59c-3.64,0-7.03.29-10.16.87-3.14.58-6.81,1.68-11.03,3.28l-9.4,3.28-21.19,58.33H18.04L59.12,25.36Z"/>
    <path class="cls-9" d="M59.02,25.26h50.68l-11.14,30.15,15.51-16.6c3.78-4.08,6.96-7.13,9.5-9.18,2.55-2.04,4.95-3.46,7.21-4.26,2.26-.8,4.92-1.2,7.98-1.2h5.9l-17.04,48.5h-4.59c-3.64,0-7.03.29-10.16.87-3.14.58-6.81,1.68-11.03,3.28l-9.4,3.28-21.19,58.33H17.94L59.02,25.26Z"/>
    <path class="cls-12" d="M58.92,25.16h50.68l-11.14,30.15,15.51-16.6c3.78-4.08,6.96-7.13,9.5-9.18,2.55-2.04,4.95-3.46,7.21-4.26,2.26-.8,4.92-1.2,7.98-1.2h5.9l-17.04,48.5h-4.59c-3.64,0-7.03.29-10.16.87-3.14.58-6.81,1.68-11.03,3.28l-9.4,3.28-21.19,58.33H17.84L58.92,25.16Z"/>
    <path class="cls-24" d="M58.82,25.06h50.68l-11.14,30.15,15.51-16.6c3.78-4.08,6.96-7.13,9.5-9.18,2.55-2.04,4.95-3.46,7.21-4.26,2.26-.8,4.92-1.2,7.98-1.2h5.9l-17.04,48.5h-4.59c-3.64,0-7.03.29-10.16.87-3.14.58-6.81,1.68-11.03,3.28l-9.4,3.28-21.19,58.33H17.74L58.82,25.06Z"/>
    <path class="cls-3" d="M58.72,24.96h50.68l-11.14,30.15,15.51-16.6c3.78-4.08,6.96-7.13,9.5-9.18,2.55-2.04,4.95-3.46,7.21-4.26,2.26-.8,4.92-1.2,7.98-1.2h5.9l-17.04,48.5h-4.59c-3.64,0-7.03.29-10.16.87-3.14.58-6.81,1.68-11.03,3.28l-9.4,3.28-21.19,58.33H17.64L58.72,24.96Z"/>
    <path class="cls-30" d="M58.62,24.86h50.68l-11.14,30.15,15.51-16.6c3.78-4.08,6.96-7.13,9.5-9.18,2.55-2.04,4.95-3.46,7.21-4.26,2.26-.8,4.92-1.2,7.98-1.2h5.9l-17.04,48.5h-4.59c-3.64,0-7.03.29-10.16.87-3.14.58-6.81,1.68-11.03,3.28l-9.4,3.28-21.19,58.33H17.54L58.62,24.86Z"/>
    <path class="cls-34" d="M58.52,24.76h50.68l-11.14,30.15,15.51-16.6c3.78-4.08,6.96-7.13,9.5-9.18,2.55-2.04,4.95-3.46,7.21-4.26,2.26-.8,4.92-1.2,7.98-1.2h5.9l-17.04,48.5h-4.59c-3.64,0-7.03.29-10.16.87-3.14.58-6.81,1.68-11.03,3.28l-9.4,3.28-21.19,58.33H17.44L58.52,24.76Z"/>
    <path class="cls-4" d="M58.42,24.66h50.68l-11.14,30.15,15.51-16.6c3.78-4.08,6.96-7.13,9.5-9.18,2.55-2.04,4.95-3.46,7.21-4.26,2.26-.8,4.92-1.2,7.98-1.2h5.9l-17.04,48.5h-4.59c-3.64,0-7.03.29-10.16.87-3.14.58-6.81,1.68-11.03,3.28l-9.4,3.28-21.19,58.33H17.34L58.42,24.66Z"/>
    <path class="cls-14" d="M58.32,24.56h50.68l-11.14,30.15,15.51-16.6c3.78-4.08,6.96-7.13,9.5-9.18,2.55-2.04,4.95-3.46,7.21-4.26,2.26-.8,4.92-1.2,7.98-1.2h5.9l-17.04,48.5h-4.59c-3.64,0-7.03.29-10.16.87-3.14.58-6.81,1.68-11.03,3.28l-9.4,3.28-21.19,58.33H17.24L58.32,24.56Z"/>
    <path class="cls-27" d="M58.22,24.46h50.68l-11.14,30.15,15.51-16.6c3.78-4.08,6.96-7.13,9.5-9.18,2.55-2.04,4.95-3.46,7.21-4.26,2.26-.8,4.92-1.2,7.98-1.2h5.9l-17.04,48.5h-4.59c-3.64,0-7.03.29-10.16.87-3.14.58-6.81,1.68-11.03,3.28l-9.4,3.28-21.19,58.33H17.14L58.22,24.46Z"/>
    <path class="cls-16" d="M58.12,24.36h50.68l-11.14,30.15,15.51-16.6c3.78-4.08,6.96-7.13,9.5-9.18,2.55-2.04,4.95-3.46,7.21-4.26,2.26-.8,4.92-1.2,7.98-1.2h5.9l-17.04,48.5h-4.59c-3.64,0-7.03.29-10.16.87-3.14.58-6.81,1.68-11.03,3.28l-9.4,3.28-21.19,58.33H17.04L58.12,24.36Z"/>
    <path class="cls-15" d="M58.02,24.26h50.68l-11.14,30.15,15.51-16.6c3.78-4.08,6.96-7.13,9.5-9.18,2.55-2.04,4.95-3.46,7.21-4.26,2.26-.8,4.92-1.2,7.98-1.2h5.9l-17.04,48.5h-4.59c-3.64,0-7.03.29-10.16.87-3.14.58-6.81,1.68-11.03,3.28l-9.4,3.28-21.19,58.33H16.94L58.02,24.26Z"/>
    <path class="cls-25" d="M57.92,24.16h50.68l-11.14,30.15,15.51-16.6c3.78-4.08,6.96-7.13,9.5-9.18,2.55-2.04,4.95-3.46,7.21-4.26,2.26-.8,4.92-1.2,7.98-1.2h5.9l-17.04,48.5h-4.59c-3.64,0-7.03.29-10.16.87-3.14.58-6.81,1.68-11.03,3.28l-9.4,3.28-21.19,58.33H16.84L57.92,24.16Z"/>
    <path class="cls-6" d="M57.82,24.06h50.68l-11.14,30.15,15.51-16.6c3.78-4.08,6.96-7.13,9.5-9.18,2.55-2.04,4.95-3.46,7.21-4.26,2.26-.8,4.92-1.2,7.98-1.2h5.9l-17.04,48.5h-4.59c-3.64,0-7.03.29-10.16.87-3.14.58-6.81,1.68-11.03,3.28l-9.4,3.28-21.19,58.33H16.74L57.82,24.06Z"/>
    <path class="cls-17" d="M57.72,23.96h50.68l-11.14,30.15,15.51-16.6c3.78-4.08,6.96-7.13,9.5-9.18,2.55-2.04,4.95-3.46,7.21-4.26,2.26-.8,4.92-1.2,7.98-1.2h5.9l-17.04,48.5h-4.59c-3.64,0-7.03.29-10.16.87-3.14.58-6.81,1.68-11.03,3.28l-9.4,3.28-21.19,58.33H16.64L57.72,23.96Z"/>
  </g>
  <path class="cls-1" d="M16.64,138.13c-.33,0-.63-.16-.82-.43-.19-.27-.23-.61-.12-.92L56.78,23.62c.14-.4.52-.66.94-.66h50.68c.33,0,.63.16.82.43.19.27.23.61.12.92l-9.42,25.49,12.12-12.98c3.79-4.08,7.03-7.2,9.61-9.27,2.62-2.1,5.15-3.59,7.5-4.42,2.36-.84,5.16-1.26,8.31-1.26h5.9c.32,0,.63.16.82.42.19.26.23.6.13.91l-17.04,48.5c-.14.4-.52.67-.94.67h-4.59c-3.55,0-6.91.29-9.97.86-3.05.57-6.71,1.66-10.86,3.23l-8.97,3.13-21.03,57.89c-.14.39-.52.66-.94.66H16.64Z"/>
  <path class="cls-19" d="M16.64,137.73c-.2,0-.38-.09-.49-.25s-.14-.37-.07-.55L57.15,23.76c.09-.24.31-.4.56-.4h50.68c.2,0,.38.1.49.26s.14.37.07.55l-10.11,27.35,13.48-14.43c3.78-4.07,7-7.18,9.57-9.23,2.59-2.07,5.07-3.54,7.39-4.36,2.32-.82,5.07-1.24,8.18-1.24h5.9c.19,0,.38.09.49.25.11.16.14.36.08.55l-17.04,48.5c-.08.24-.31.4-.57.4h-4.59c-3.58,0-6.96.29-10.05.86-3.08.57-6.76,1.67-10.93,3.25l-9.14,3.19-21.09,58.07c-.09.24-.31.39-.56.39H16.64Z"/>
  <path class="cls-7" d="M57.72,23.96h50.68l-11.14,30.15,15.51-16.6c3.78-4.08,6.96-7.13,9.5-9.18,2.55-2.04,4.95-3.46,7.21-4.26,2.26-.8,4.92-1.2,7.98-1.2h5.9l-17.04,48.5h-4.59c-3.64,0-7.03.29-10.16.87-3.14.58-6.81,1.68-11.03,3.28l-9.4,3.28-21.19,58.33H16.64L57.72,23.96Z"/>
</svg>